<svg xmlns="http://www.w3.org/2000/svg" viewBox="0 0 30.388 30.39">
    <path
        d="M87.281,149.84h-.223a7.464,7.464,0,0,0,0,14.927h.216a7.464,7.464,0,0,0,.007-14.927Zm5.174,7.465a5.086,5.086,0,0,1-1.563,3.747,5.138,5.138,0,0,1-3.664,1.538h-.067a5.019,5.019,0,0,1-3.746-1.542,5.305,5.305,0,0,1,.006-7.479,5.071,5.071,0,0,1,3.651-1.557h.089l.255,0v0a5.343,5.343,0,0,1,5.039,5.292Z"
        transform="translate(-72.052 -142.027)" />
    <path
        d="M95.58,147.607a1.288,1.288,0,0,0-.039,2.575H95.6a1.293,1.293,0,0,0,.893-2.2A1.337,1.337,0,0,0,95.58,147.607Z"
        transform="translate(-72.052 -142.027)" />
    <path
        d="M101.7,147.882a9.422,9.422,0,0,0-5.116-5.117,9.253,9.253,0,0,0-3.723-.737H81.542a9.307,9.307,0,0,0-3.637.736,9.422,9.422,0,0,0-5.117,5.116,9.3,9.3,0,0,0-.736,3.724v11.24a9.29,9.29,0,0,0,.736,3.723,9.359,9.359,0,0,0,5.115,5.109,9.594,9.594,0,0,0,3.723.736H92.561l.3.005h.1a9.3,9.3,0,0,0,3.627-.732,9.41,9.41,0,0,0,5.117-5.121,9.27,9.27,0,0,0,.736-3.723V151.6A9.272,9.272,0,0,0,101.7,147.882Zm-1.437,3.722v11.243a7.371,7.371,0,0,1-7.4,7.4H81.622a7.368,7.368,0,0,1-7.4-7.4V151.6a7.373,7.373,0,0,1,7.272-7.4H92.869a7.371,7.371,0,0,1,7.4,7.4Z"
        transform="translate(-72.052 -142.027)" />
</svg>