<svg xmlns="http://www.w3.org/2000/svg" viewBox="0 0 30.695 30.69">
    <path
        d="M90.137,157.619h0a2.493,2.493,0,1,0,1.763.732A2.474,2.474,0,0,0,90.136,157.619Z"
        transform="translate(-71.9 -141.885)" />
    <path
        d="M82.629,162.794a.954.954,0,0,0,.678-.28l9.229-9.23a.957.957,0,0,0,0-1.354v0a.958.958,0,0,0-1.354,0l-9.229,9.228a.957.957,0,0,0,.677,1.635Z"
        transform="translate(-71.9 -141.885)" />
    <path
        d="M84.354,156.827h0a2.491,2.491,0,1,0,0-4.981h0a2.491,2.491,0,1,0,0,4.981Z"
        transform="translate(-71.9 -141.885)" />
    <path
        d="M102.3,156.56l-2.718-2.621,1.059-3.62a.951.951,0,0,0-.078-.729.972.972,0,0,0-.611-.471l-3.662-.907-.895-3.668a.966.966,0,0,0-1.195-.693l-3.63,1.041-2.6-2.726a.992.992,0,0,0-1.382,0l-2.618,2.718-3.622-1.06a.955.955,0,0,0-.729.078.977.977,0,0,0-.471.611l-.908,3.663-3.669.894a.968.968,0,0,0-.693,1.2l1.042,3.63-2.726,2.6a.968.968,0,0,0,0,1.383l2.716,2.619-1.056,3.621a.953.953,0,0,0,.077.73.977.977,0,0,0,.612.471l3.662.908.892,3.667a.968.968,0,0,0,1.2.694l3.629-1.042,2.607,2.73a.958.958,0,0,0,1.382,0l2.62-2.719,3.62,1.05a.966.966,0,0,0,1.2-.689l.908-3.662,3.667-.895a.967.967,0,0,0,.693-1.2l-1.042-3.629,2.735-2.611a.955.955,0,0,0,.286-.68h0A.951.951,0,0,0,102.3,156.56Zm-25.4,3.915a.953.953,0,0,0-.255-.957L74.241,157.2l2.426-2.318a.953.953,0,0,0,.259-.957L76,150.7l3.26-.794a.954.954,0,0,0,.7-.7l.813-3.258,3.217.941a.956.956,0,0,0,.957-.255l2.326-2.413,2.317,2.426a.951.951,0,0,0,.958.259l3.225-.93.791,3.261a.953.953,0,0,0,.7.7l3.258.812-.939,3.212a.952.952,0,0,0,.254.958l2.418,2.328-2.426,2.319a.954.954,0,0,0-.259.957l.93,3.225-3.262.791a.957.957,0,0,0-.7.7l-.812,3.258-3.221-.942a.961.961,0,0,0-.957.254l-2.328,2.418L84.9,167.8a.965.965,0,0,0-.959-.258l-3.224.93-.794-3.261a.952.952,0,0,0-.7-.7l-3.257-.812Z"
        transform="translate(-71.9 -141.885)" />
</svg>