<svg xmlns="http://www.w3.org/2000/svg" viewBox="0 0 23.279 32.558">
    <path
        d="M327.532,242.207l-.011-.007a4.182,4.182,0,0,0-2.633-.5,3.061,3.061,0,0,1,2.625-1.518h0a.95.95,0,1,0,0-1.9,4.892,4.892,0,0,0-.869.078,4.43,4.43,0,0,0-4.336-3.47.948.948,0,0,0-.674.28v-2.238a.949.949,0,0,0-.264-.658l-5.7-5.937v-1.705a.95.95,0,1,0-1.9,0v1.705l-5.7,5.941a.95.95,0,0,0-.264.654v20.442a.952.952,0,0,0,.95.95H318.5a7.549,7.549,0,0,0,12.58-5.63A7.6,7.6,0,0,0,327.532,242.207Zm-16.554-10.228,3.739-3.889,3.741,3.889Zm13.508,6.042a2.562,2.562,0,0,1-.864-.865A2.562,2.562,0,0,1,324.486,238.021Zm-.423,5.987a2.336,2.336,0,0,1,2.538-.149,5.707,5.707,0,0,1-3.073,10.485,5.706,5.706,0,0,1-3.077-10.475,2.431,2.431,0,0,1,1.155-.313,2.53,2.53,0,0,1,1.408.459A.954.954,0,0,0,324.063,244.008Zm-4.327-1.913c-.068.033-.137.068-.212.109a7.593,7.593,0,0,0-3.548,6.483,7.5,7.5,0,0,0,.988,3.731H309.7V233.879h10.035Zm1.9-4.724a4.473,4.473,0,0,0,2.268,2.484,4.918,4.918,0,0,0-1.123,1.969,4.122,4.122,0,0,0-1.145-.17Z"
        transform="translate(-307.801 -223.679)" />
</svg>