<svg xmlns="http://www.w3.org/2000/svg" viewBox="0 0 26.358 30.208">
  <g clip-path="url(#recipe-level-clip-path)">
    <path
      d="M15.816,0C10.028,0,5.478,4.711,5.356,10.771a4.023,4.023,0,0,0-.984-.13A4.24,4.24,0,0,0,1.279,11.93a4.379,4.379,0,0,0,0,6.186l4.074,4.073v6.918a1.053,1.053,0,0,0,1.1,1.1h18.8a1.1,1.1,0,0,0,1.1-1.1V10.542A10.555,10.555,0,0,0,15.816,0M7.464,21.211a1.3,1.3,0,0,1-.083-.115,1.475,1.475,0,0,0-.157-.206l-4.479-4.4a2.21,2.21,0,0,1,0-3.1,2.217,2.217,0,0,1,3.1,0l3.519,3.519a1.069,1.069,0,0,0,1.545,0,1.071,1.071,0,0,0,0-1.545L7.473,11.938v-1A8.458,8.458,0,0,1,15.816,2.2a8.352,8.352,0,0,1,8.342,8.342v13.3H7.554V21.3Zm16.693,6.8H7.554v-1.96h16.6Z"
      transform="translate(0 0)" />
  </g>
</svg>