<svg xmlns="http://www.w3.org/2000/svg" viewBox="0 0 30.782 27.306">
  <path d="M32.2,15.293a.9.9,0,0,1,.848.763v1.357H35.6a1.187,1.187,0,0,1,0,2.374H33.051V32.931a2.4,2.4,0,0,1-2.2,2.374H12.021a2.4,2.4,0,0,1-2.374-2.2V19.787H7.187a1.187,1.187,0,1,1,0-2.374H9.731V16.141a.8.8,0,0,1,.848-.848.9.9,0,0,1,.848.763V32.931a.655.655,0,0,0,.594.678H30.761a.655.655,0,0,0,.678-.594V16.141A.78.78,0,0,1,32.2,15.293ZM11,13.173a.8.8,0,0,1-.848-.848.9.9,0,0,1,.763-.848h6.275a4.324,4.324,0,0,1,8.48,0h6.19a.8.8,0,0,1,.848.848.9.9,0,0,1-.763.848H11ZM21.434,9.7a2.572,2.572,0,0,0-2.459,1.781h5A2.858,2.858,0,0,0,21.434,9.7Z" transform="translate(-6 -8)" fill-rule="evenodd"/>
</svg>