<svg xmlns="http://www.w3.org/2000/svg" viewBox="0 0 30.935 28.566">
  <path id="time-preparation-Shape" d="M36.993,35.721a.9.9,0,0,1,.947.947,1.008,1.008,0,0,1-.853.947H8.947A.9.9,0,0,1,8,36.669a1.008,1.008,0,0,1,.853-.947h28.14ZM32.729,9.761a2.635,2.635,0,0,1,3.6,0h0l1.895,1.895a2.635,2.635,0,0,1,0,3.6,2.071,2.071,0,0,1-.474.284.716.716,0,0,0-.379.095h-.379l-1.705.568a4.785,4.785,0,0,0-1.705,1.042,4.626,4.626,0,0,0-.947,1.516,8,8,0,0,0-.474,1.611,1.408,1.408,0,0,0-.095.568h0v.189a.819.819,0,0,1-.284.568c-.189.189-.379.284-.568.474a2.308,2.308,0,0,1-.379,2.937h0l-8.812,8.338a.86.86,0,0,1-.663.284h0l-8.148-.189a.86.86,0,0,1-.663-.284,2.289,2.289,0,0,1,0-3.316h0L24.107,18.383a2.207,2.207,0,0,1,1.421-.663,2.121,2.121,0,0,1,.758-1.421h0Zm-6.443,9.854a.458.458,0,0,0-.663,0h0L14.064,31.174c-.095.095-.189.284-.095.379h0l7.2.095L29.7,23.594a.446.446,0,0,0,.095-.568h0l-.095-.095ZM35,11.087a.531.531,0,0,0-.853,0h0L27.707,17.53a.531.531,0,0,0,0,.853h0L29.6,20.278a.8.8,0,0,0,.663.189h0l.095-.474a6.288,6.288,0,0,1,.568-1.895,5.644,5.644,0,0,1,1.326-2.084,6.672,6.672,0,0,1,2.274-1.421,16.328,16.328,0,0,1,1.99-.663c.189,0,.284-.095.474-.095h.095V13.74a.627.627,0,0,0-.095-.568h0l-.095-.095Z" transform="translate(-8 -9.05)" fill-rule="evenodd"/>
</svg>