<svg xmlns="http://www.w3.org/2000/svg" viewBox="0 0 30.527 27.303">
    <path
        d="M95.4,147q-.1,0-.2,0a7.734,7.734,0,0,0-1.789.214,7.518,7.518,0,0,0-12.33,0,7.668,7.668,0,0,0-1.783-.215c-.065,0-.13,0-.2,0a7.139,7.139,0,0,0-7.116,6.907,7.056,7.056,0,0,0,6.363,6.842v9.659a.918.918,0,0,0,.29.644.947.947,0,0,0,.66.252H95.223a.928.928,0,0,0,.923-.9v-9.654a7.056,7.056,0,0,0,6.363-6.851A7.134,7.134,0,0,0,95.4,147Zm-1.146,20.076v2.427H80.235v-2.427Zm0-7.173v5.372H80.235V159.9a.925.925,0,0,0-.923-.9h-.026l-.044,0a5.109,5.109,0,1,1,.043-10.2,5.635,5.635,0,0,1,.969.084,6.507,6.507,0,0,0-.323,2.016v.151h1.887l0-.146A5.283,5.283,0,0,1,87.1,145.8c.049,0,.1,0,.149,0s.1,0,.145,0a5.284,5.284,0,0,1,5.268,5.107l0,.146h1.886V150.9a6.48,6.48,0,0,0-.321-2.016,5.791,5.791,0,0,1,.97-.084c.049,0,.1,0,.145,0a5.105,5.105,0,1,1,0,10.205l-.144,0a.883.883,0,0,0-.661.246A.921.921,0,0,0,94.246,159.9Z"
        transform="translate(-71.982 -144.003)" />
</svg>