<svg xmlns="http://www.w3.org/2000/svg" viewBox="0 0 30.296 30.654">
    <g transform="translate(-95.195 -100.128)">
        <path
            d="M110.741,114.213h.01a4.27,4.27,0,0,0,3.044-1.272,4.172,4.172,0,0,0-.048-5.882,4.25,4.25,0,0,0-6.005.049,4.188,4.188,0,0,0,3,7.106Zm2.313-4.158a2.256,2.256,0,0,1-.668,1.592,2.406,2.406,0,0,1-1.608.656,2.268,2.268,0,0,1-2.251-2.194v-.083a2.256,2.256,0,0,1,.662-1.592,2.4,2.4,0,0,1,1.613-.66A2.267,2.267,0,0,1,113.054,110.054Z"
            transform="translate(-0.445 -0.442)" />
        <path
            d="M103.295,116.435l7.062,7.393,6.888-7.228.277-.274a9.662,9.662,0,0,0-7.114-16.2h-.038a9.66,9.66,0,0,0-7.151,16.153Zm7.037-14.162h.02a7.563,7.563,0,0,1,5.816,12.375l-5.809,6.1-5.427-5.649-.081-.07-.215-.318-.109-.111-.048-.029a7.352,7.352,0,0,1-1.711-4.75A7.573,7.573,0,0,1,110.332,102.273Z" />
        <path
            d="M124.153,119.441h0a10.419,10.419,0,0,0-3.756-2.624,1.459,1.459,0,0,0-.531-.088,1.283,1.283,0,0,0-.957.732,1.355,1.355,0,0,0-.093.469,1.165,1.165,0,0,0,.663,1.046,9,9,0,0,1,2.794,1.884,3.091,3.091,0,0,1,.925,2.048,2.935,2.935,0,0,1-.866,1.982,8.349,8.349,0,0,1-2.588,1.843,22.334,22.334,0,0,1-9.387,1.832c-5.274,0-9.975-1.469-11.982-3.748a2.93,2.93,0,0,1-.863-1.945,3.124,3.124,0,0,1,.931-2.085,8.436,8.436,0,0,1,2.773-1.886,1.175,1.175,0,0,0,.644-1.069,1.826,1.826,0,0,0-.106-.467,1.162,1.162,0,0,0-1.04-.64h-.023a1.755,1.755,0,0,0-.452.1,10.575,10.575,0,0,0-3.712,2.655,5.188,5.188,0,0,0-1.332,3.344c0,2.207,1.582,4.227,4.454,5.689l.037.014a24.076,24.076,0,0,0,10.154,2.257c.16,0,.32,0,.479-.005.1,0,.189,0,.284,0s.193,0,.29,0a23.982,23.982,0,0,0,10.146-2.278c2.913-1.524,4.452-3.492,4.452-5.7A5.275,5.275,0,0,0,124.153,119.441Z" />
    </g>
</svg>