<svg xmlns="http://www.w3.org/2000/svg" viewBox="0 0 29.401 25.403">
    <path d="M94.063,151.022H85.882a1,1,0,1,0,0,2h8.181a1,1,0,1,0,0-2Z" transform="translate(-72.545 -144.521)" />
    <path d="M85.875,163.423h8.189a1,1,0,1,0,0-2H85.883a1.032,1.032,0,0,0-1.064,1A1.059,1.059,0,0,0,85.875,163.423Z"
        transform="translate(-72.545 -144.521)" />
    <rect width="2.127" height="2.001" transform="translate(6.818 6.501)" />
    <path
        d="M94.772,156.515a.99.99,0,0,0-.706-.292H85.883a1.032,1.032,0,0,0-1.064,1,1.069,1.069,0,0,0,1.056,1h8.189a1,1,0,0,0,.708-1.708Z"
        transform="translate(-72.545 -144.521)" />
    <rect width="2.127" height="2" transform="translate(6.818 11.702)" />
    <rect width="2.128" height="2" transform="translate(6.818 16.902)" />
    <path
        d="M101.946,148.123a3.705,3.705,0,0,0-3.7-3.6H76.243a3.707,3.707,0,0,0-3.7,3.609v18.193a3.705,3.705,0,0,0,3.7,3.6h22a3.708,3.708,0,0,0,3.7-3.609Zm-2.128,18.2a1.632,1.632,0,0,1-1.67,1.6H76.3a1.634,1.634,0,0,1-1.626-1.593V148.123a1.631,1.631,0,0,1,1.67-1.6H98.151a1.612,1.612,0,0,1,1.667,1.592Z"
        transform="translate(-72.545 -144.521)" />
</svg>