<svg xmlns="http://www.w3.org/2000/svg" viewBox="0 0 19.239 22">
    <path
        d="M50.594,4.832A4.193,4.193,0,0,1,46.406.645.645.645,0,0,0,45.762,0H42.31a.644.644,0,0,0-.645.645V14.8A2.462,2.462,0,1,1,39.2,12.335a.644.644,0,0,0,.645-.645V8.238a.645.645,0,0,0-.645-.645,7.2,7.2,0,1,0,7.2,7.2V8.532a8.866,8.866,0,0,0,4.188,1.041.644.644,0,0,0,.645-.645V5.477A.645.645,0,0,0,50.594,4.832ZM49.95,8.258a7.576,7.576,0,0,1-3.812-1.407.644.644,0,0,0-1.021.523V14.8a5.914,5.914,0,1,1-6.559-5.879V11.1a3.751,3.751,0,1,0,4.4,3.7V1.289h2.2A5.489,5.489,0,0,0,49.95,6.084Z"
        transform="translate(-32)" />
</svg>