<svg xmlns="http://www.w3.org/2000/svg" viewBox="0 0 29.101 29.099">
  <path
    d="M72.7,156.17a14.55,14.55,0,1,0,25.16-9.476,14.657,14.657,0,0,0-11.834-4.551v9.193h2.433v-6.762l.514.074a12.118,12.118,0,1,1-10.275,3.4l-1.718-1.719A14.448,14.448,0,0,0,72.7,156.17Z"
    transform="translate(-72.695 -142.094)" />
  <path
    d="M81.207,154.344l5.075,5.074a1.338,1.338,0,0,0,.949.4,1.394,1.394,0,0,0,.954-.385,1.346,1.346,0,0,0,.017-1.9l-5.1-5.094a1.342,1.342,0,0,0-1.9,0h0a1.344,1.344,0,0,0,0,1.9Z"
    transform="translate(-72.695 -142.094)" />
</svg>