<svg xmlns="http://www.w3.org/2000/svg" viewBox="0 0 29.941 24.405">
    <path
        d="M8.278-12.459a18.275,18.275,0,0,0,4.429,2.015,17.032,17.032,0,0,0,5,.731,17,17,0,0,0,7.618-1.639A17.259,17.259,0,0,0,30.889-15.6a17.674,17.674,0,0,0,3.344-5.891,17.587,17.587,0,0,0,.974-6.467,8.8,8.8,0,0,0,1.683-1.462,14.2,14.2,0,0,0,1.329-1.727,14.614,14.614,0,0,1-1.705.6,10.134,10.134,0,0,1-1.794.332,6.761,6.761,0,0,0,1.661-1.462,6.045,6.045,0,0,0,1.085-1.949q-.93.487-1.86.886a10.464,10.464,0,0,1-1.993.62,6.626,6.626,0,0,0-2.037-1.462,5.745,5.745,0,0,0-2.436-.532,5.816,5.816,0,0,0-4.806,2.347A5.82,5.82,0,0,0,23.2-26.544a15.813,15.813,0,0,1-3.721-.62A18.076,18.076,0,0,1,16.1-28.471a16.954,16.954,0,0,1-3.034-1.971,20.39,20.39,0,0,1-2.525-2.525,5.992,5.992,0,0,0-.687,4.429,5.972,5.972,0,0,0,2.591,3.809,5.3,5.3,0,0,1-1.484-.2A5.118,5.118,0,0,1,9.7-25.481,5.669,5.669,0,0,0,11-21.606a5.782,5.782,0,0,0,3.61,2.148,10.244,10.244,0,0,1-1.351.177,5.592,5.592,0,0,1-1.4-.089,5.977,5.977,0,0,0,2.148,3.056,5.8,5.8,0,0,0,3.61,1.2,12.839,12.839,0,0,1-4.5,2.281A13.062,13.062,0,0,1,8.278-12.459Z"
        transform="translate(-8.278 34.118)" />
</svg>