<svg xmlns="http://www.w3.org/2000/svg" viewBox="0 0 27.837 30.544">
    <g transform="translate(0.135 0.125)">
        <g transform="translate(-31.093 -175.455)">
            <path
                d="M58.629,176.518a2.55,2.55,0,0,0-.2-.45,1.125,1.125,0,0,0-.846-.54,12.255,12.255,0,0,0-1.508-.072H52.947a1.849,1.849,0,0,0-.883.216,2.1,2.1,0,0,0-.7.612l-4.929,8.6q-1.177,2.016-2.391,4.1t-2.317,4.029l-.257.324,6.51,11.512a1.812,1.812,0,0,0,.515.468c.171.1.294.168.368.216a6.019,6.019,0,0,0,.883.162,8.672,8.672,0,0,0,.993.054l1.325-.071a14.58,14.58,0,0,0,1.821-.108,1.36,1.36,0,0,0,1.159-.72,1.285,1.285,0,0,0,.11-.791,1.911,1.911,0,0,0-.257-.684l-.11-.162a5.136,5.136,0,0,1-.294-.522l-5.149-9.354,3.9-6.835q1.031-1.8,2.078-3.58t2.078-3.544l1.1-2.015A1.049,1.049,0,0,0,58.629,176.518Zm-2.411,1.6-.145.4q-1.067,1.836-2.115,3.669t-2.044,3.634l-4.3,7.519.552,1.079,3.6,6.511q.772,1.332,1.287,2.23l.515.9v.108q-.294.036-.754.054t-.754.018h-.7q-.588,0-1.14-.018a2.445,2.445,0,0,1-.883-.162l-6.063-10.721q1.067-1.906,2.225-3.849t2.262-3.921l4.853-8.418a.663.663,0,0,1,.221-.2.441.441,0,0,1,.184-.054h3.935Z"
                stroke="#0e223b" stroke-miterlimit="10" stroke-width="0.25" />
            <path
                d="M42.31,189.345q.4-.684.772-1.4l.221-.36-.073-.326q-.367-.612-.809-1.331t-.846-1.439q-.22-.4-.46-.791c-.159-.26-.313-.5-.46-.72a.314.314,0,0,1-.092-.144.652.652,0,0,0-.092-.18,5,5,0,0,0-.644-.989,1.583,1.583,0,0,0-1.306-.522H34.035a1.189,1.189,0,0,0-.846.324,1.406,1.406,0,0,0-.331.576,1.6,1.6,0,0,0,.147,1.061q.256.522.478.953a1.6,1.6,0,0,1,.276.378q.129.234.276.522.367.54.883,1.385a9.392,9.392,0,0,1,.7,1.313q-.294.5-.993,1.727t-1.362,2.266q-.479.755-.883,1.475t-.7,1.3l-.074.144q-.221.4-.423.845a.832.832,0,0,0,.055.845,1.346,1.346,0,0,0,1.178.756H36.94a1.873,1.873,0,0,0,1.232-.558,6.361,6.361,0,0,0,.754-1.133,1.13,1.13,0,0,1,.147-.36q.109-.18.221-.4.552-.971,1.122-1.943t1.085-1.907Zm-2.059.612v0q-.514.972-1.085,1.907t-1.122,1.94q-.109.216-.221.4a1.121,1.121,0,0,0-.147.36,3.346,3.346,0,0,1-.423.7.432.432,0,0,1-.313.126H32.858a.163.163,0,0,0,.092-.09.384.384,0,0,0,.018-.126l.074-.144q.294-.54.717-1.241t.828-1.457q1.948-3.274,2.28-3.9a2.429,2.429,0,0,0,.331-.845,2.3,2.3,0,0,0-.294-.881q-.294-.594-1.582-2.644-.184-.288-.313-.522t-.239-.414l-.11-.072-.129-.252a2.752,2.752,0,0,0-.166-.288h4.009a.351.351,0,0,1,.239.144,5.14,5.14,0,0,1,.386.54c.025.048.055.1.092.162a.314.314,0,0,1,.055.162q.22.4.46.791a6.747,6.747,0,0,0,.5.72q.332.576.68,1.205t.717,1.205a8.308,8.308,0,0,1-.552,1.313Q40.614,189.382,40.251,189.957Z"
                stroke="#0e223b" stroke-miterlimit="10" stroke-width="0.25" />
        </g>
    </g>
</svg>