<svg xmlns="http://www.w3.org/2000/svg" viewBox="0 0 30.76 21.85">
    <path
        d="M20.5-13.561H18.867q-1.519,0-3.437-.075t-3.779-.188A17.715,17.715,0,0,1,8.918-14.2a4.332,4.332,0,0,1-1.975-1.126A4.6,4.6,0,0,1,5.766-17.24q-.3-1.8-.475-3.6t-.171-3.6q0-1.727.133-3.51a26.043,26.043,0,0,1,.513-3.548,4.422,4.422,0,0,1,1.158-2.065,4.611,4.611,0,0,1,1.994-1.2,13.086,13.086,0,0,1,2.734-.375q1.9-.15,3.816-.206t3.4-.056h3.266q1.481,0,3.4.056t3.816.169a15.826,15.826,0,0,1,2.734.338,4.241,4.241,0,0,1,1.994,1.183,4.562,4.562,0,0,1,1.158,2.009v.075q.3,1.764.475,3.548t.171,3.585q0,1.727-.133,3.51a23.92,23.92,0,0,1-.513,3.473,4.3,4.3,0,0,1-1.158,2.046,5.045,5.045,0,0,1-1.994,1.22,17.715,17.715,0,0,1-2.734.375q-1.861.113-3.779.188t-3.437.075Zm0-20.16H17.956q-1.633.038-3.323.094t-3.171.169a15.842,15.842,0,0,0-2.127.263,2.708,2.708,0,0,0-1.31.751,2.858,2.858,0,0,0-.741,1.276q-.228,1.689-.4,3.36a33,33,0,0,0-.171,3.36q0,1.727.133,3.435a32.5,32.5,0,0,0,.437,3.36,2.51,2.51,0,0,0,.741,1.183,2.641,2.641,0,0,0,1.2.657,12.591,12.591,0,0,0,2.165.3q1.481.113,3.171.169t3.323.094h5.089q1.633-.038,3.323-.094t3.171-.169a11.653,11.653,0,0,0,2.127-.3,2.555,2.555,0,0,0,1.291-.713,2.785,2.785,0,0,0,.759-1.276,31.074,31.074,0,0,0,.437-3.285q.133-1.671.133-3.36,0-1.727-.133-3.435a32.5,32.5,0,0,0-.437-3.36,2.663,2.663,0,0,0-.759-1.3,2.907,2.907,0,0,0-1.291-.732A13.317,13.317,0,0,0,29.5-33.5q-1.443-.113-3.133-.15l-3.323-.075ZM17.5-19.3a.808.808,0,0,1-.19-.019,1.27,1.27,0,0,1-.228-.094,1.139,1.139,0,0,1-.266-.282.757.757,0,0,1-.114-.432v-8.56a.781.781,0,0,1,.114-.413,1.037,1.037,0,0,1,.266-.3.8.8,0,0,1,.418-.113.8.8,0,0,1,.418.113l7.6,4.242a.868.868,0,0,1,.3.3.781.781,0,0,1,.114.413.781.781,0,0,1-.114.413.868.868,0,0,1-.3.3l-7.6,4.242a.723.723,0,0,1-.19.131A.51.51,0,0,1,17.5-19.3Zm.8-8.034v5.782l5.2-2.891Z"
        transform="translate(-5.12 35.41)" />
</svg>